<?xml version="1.0" encoding="UTF-8"?>
<svg width="160px" height="28px" viewBox="0 0 160 28" version="1.1" xmlns="http://www.w3.org/2000/svg" xmlns:xlink="http://www.w3.org/1999/xlink">
    <!-- Generator: Sketch 63.1 (92452) - https://sketch.com -->
    <title>Group 4</title>
    <desc>Created with Sketch.</desc>
    <defs>
        <polygon id="path-1" points="0 0.0636787879 14.3139368 0.0636787879 14.3139368 26.818103 0 26.818103"></polygon>
    </defs>
    <g id="Symbols" stroke="none" stroke-width="1" fill="none" fill-rule="evenodd">
        <g id="navigation/white" transform="translate(-44.000000, -26.000000)">
            <g id="Group-4" transform="translate(44.000000, 26.360564)">
                <g id="Group-3" transform="translate(40.734653, 3.818267)" fill="#000000">
                    <path d="M30.0474105,14.6574909 C30.8436211,13.8382788 31.2415158,12.7598545 31.2415158,11.4234909 C31.2415158,10.0871273 30.8436211,9.00955152 30.0474105,8.18949091 C29.2512,7.37027879 28.2440421,6.96003636 27.0229895,6.96003636 C25.8036211,6.96003636 24.7994105,7.37027879 24.0128842,8.18949091 C23.2259368,9.00955152 22.8318316,10.0871273 22.8318316,11.4234909 C22.8318316,12.7598545 23.2259368,13.8382788 24.0128842,14.6574909 C24.7994105,15.4775515 25.8036211,15.8869455 27.0229895,15.8869455 C28.2440421,15.8869455 29.2512,15.4775515 30.0474105,14.6574909 L30.0474105,14.6574909 Z M34.5038316,4.28730909 L34.5038316,17.9712485 L34.5038316,18.5596727 L33.7707789,18.5596727 L31.3476211,18.5596727 L31.3476211,16.7154909 C30.7989895,17.3930061 30.1227789,17.9008242 29.3181474,18.2389455 C28.5126737,18.5774909 27.6246737,18.7467636 26.6524632,18.7467636 C25.2726737,18.7467636 24.0389895,18.4442788 22.9514105,17.8380364 C21.8638316,17.2326424 21.0154105,16.3773697 20.4053053,15.2722182 C19.7947789,14.1679152 19.4903579,12.8850061 19.4903579,11.4234909 C19.4903579,9.96282424 19.7947789,8.68415758 20.4053053,7.58833939 C21.0154105,6.49252121 21.8638316,5.64191515 22.9514105,5.03567273 C24.0389895,4.43027879 25.2726737,4.12694545 26.6524632,4.12694545 C27.5716211,4.12694545 28.4162526,4.28730909 29.1855158,4.60803636 C29.9543579,4.92876364 30.6221474,5.4013697 31.1880421,6.02458182 L31.1880421,4.28730909 L34.5038316,4.28730909 Z" id="Fill-1"></path>
                    <path d="M55.6654316,14.6574909 C56.4612211,13.8382788 56.8591158,12.7598545 56.8591158,11.4234909 C56.8591158,10.0871273 56.4612211,9.00955152 55.6654316,8.18949091 C54.8692211,7.37027879 53.8616421,6.96003636 52.6410105,6.96003636 C51.4212211,6.96003636 50.4174316,7.37027879 49.6309053,8.18949091 C48.8435368,9.00955152 48.4502737,10.0871273 48.4502737,11.4234909 C48.4502737,12.7598545 48.8435368,13.8382788 49.6309053,14.6574909 C50.4174316,15.4775515 51.4212211,15.8869455 52.6410105,15.8869455 C53.8616421,15.8869455 54.8692211,15.4775515 55.6654316,14.6574909 L55.6654316,14.6574909 Z M60.1218526,4.28730909 L60.1218526,18.5596727 L56.9652211,18.5596727 L56.9652211,16.7154909 C56.4165895,17.3930061 55.7403789,17.9008242 54.9361684,18.2389455 C54.1302737,18.5774909 53.2422737,18.7467636 52.2700632,18.7467636 C50.8906947,18.7467636 49.6565895,18.4442788 48.5690105,17.8380364 C47.4814316,17.2326424 46.6334316,16.3773697 46.0233263,15.2722182 C45.4123789,14.1679152 45.1079579,12.8850061 45.1079579,11.4234909 C45.1079579,9.96282424 45.4123789,8.68415758 46.0233263,7.58833939 C46.6334316,6.49252121 47.4814316,5.64191515 48.5690105,5.03567273 C49.6565895,4.43027879 50.8906947,4.12694545 52.2700632,4.12694545 C53.1892211,4.12694545 54.0338526,4.28730909 54.8031158,4.60803636 C55.5719579,4.92876364 56.2397474,5.4013697 56.8060632,6.02458182 L56.8060632,4.28730909 L60.1218526,4.28730909 Z" id="Fill-3"></path>
                    <path d="M97.5466105,14.6574909 C98.3424,13.8382788 98.7402947,12.7598545 98.7402947,11.4234909 C98.7402947,10.0871273 98.3424,9.00955152 97.5466105,8.18949091 C96.7504,7.37027879 95.7428211,6.96003636 94.5221895,6.96003636 C93.3024,6.96003636 92.2986105,7.37027879 91.5120842,8.18949091 C90.7247158,9.00955152 90.3314526,10.0871273 90.3314526,11.4234909 C90.3314526,12.7598545 90.7247158,13.8382788 91.5120842,14.6574909 C92.2986105,15.4775515 93.3024,15.8869455 94.5221895,15.8869455 C95.7428211,15.8869455 96.7504,15.4775515 97.5466105,14.6574909 M90.6497684,17.8113091 C89.5002947,17.1876727 88.6026105,16.3192485 87.9575579,15.2056121 C87.3108211,14.0919758 86.9891368,12.8315515 86.9891368,11.4234909 C86.9891368,10.0162788 87.3108211,8.76009697 87.9575579,7.65494545 C88.6026105,6.55064242 89.5002947,5.68646061 90.6497684,5.0624 C91.7992421,4.43918788 93.0901895,4.12694545 94.5221895,4.12694545 C95.9727158,4.12694545 97.2725053,4.43918788 98.4219789,5.0624 C99.5714526,5.68646061 100.467874,6.55064242 101.114611,7.65494545 C101.759663,8.76009697 102.082189,10.0162788 102.082189,11.4234909 C102.082189,12.8315515 101.759663,14.0919758 101.114611,15.2056121 C100.467874,16.3192485 99.5714526,17.1876727 98.4219789,17.8113091 C97.2725053,18.4353697 95.9727158,18.7467636 94.5221895,18.7467636 C93.0901895,18.7467636 91.7992421,18.4353697 90.6497684,17.8113091" id="Fill-5"></path>
                    <path d="M80.9516211,14.7515455 C81.7478316,13.9323333 82.1457263,12.8539091 82.1457263,11.5175455 C82.1457263,10.1811818 81.7478316,9.10360606 80.9516211,8.28354545 C80.1554105,7.46433333 79.1482526,7.05409091 77.9272,7.05409091 C76.7078316,7.05409091 75.7036211,7.46433333 74.9170947,8.28354545 C74.1301474,9.10360606 73.7364632,10.1811818 73.7364632,11.5175455 C73.7364632,12.8539091 74.1301474,13.9323333 74.9170947,14.7515455 C75.7036211,15.5716061 76.7078316,15.981 77.9272,15.981 C79.1482526,15.981 80.1554105,15.5716061 80.9516211,14.7515455 M74.0547789,17.9053636 C72.9053053,17.2817273 72.0080421,16.413303 71.3625684,15.2996667 C70.7162526,14.1860303 70.3945684,12.9256061 70.3945684,11.5175455 C70.3945684,10.1103333 70.7162526,8.85415152 71.3625684,7.749 C72.0080421,6.64469697 72.9053053,5.78051515 74.0547789,5.15645455 C75.2046737,4.53324242 76.4952,4.221 77.9272,4.221 C79.3777263,4.221 80.6775158,4.53324242 81.8269895,5.15645455 C82.9768842,5.78051515 83.8733053,6.64469697 84.5196211,7.749 C85.1650947,8.85415152 85.4872,10.1103333 85.4872,11.5175455 C85.4872,12.9256061 85.1650947,14.1860303 84.5196211,15.2996667 C83.8733053,16.413303 82.9768842,17.2817273 81.8269895,17.9053636 C80.6775158,18.5294242 79.3777263,18.8408182 77.9272,18.8408182 C76.4952,18.8408182 75.2046737,18.5294242 74.0547789,17.9053636" id="Fill-7"></path>
                    <path d="M107.682695,9.07149091 C108.054484,8.39482424 108.558063,7.8734303 109.195116,7.50815758 C109.831747,7.14330909 110.547958,6.96003636 111.343747,6.96003636 C112.563958,6.96003636 113.567747,7.37027879 114.354695,8.18949091 C115.141221,9.00955152 115.534905,10.0871273 115.534905,11.4234909 C115.534905,12.7598545 115.141221,13.8382788 114.354695,14.6574909 C113.567747,15.4775515 112.563958,15.8869455 111.343747,15.8869455 C110.547958,15.8869455 109.831747,15.7045212 109.195116,15.3392485 C108.558063,14.9744 108.054484,14.4530061 107.682695,13.7754909 C107.311326,13.0988242 107.126063,12.3148242 107.126063,11.4234909 C107.126063,10.5325818 107.311326,9.74900606 107.682695,9.07149091 L107.682695,9.07149091 Z M107.179116,16.8224 C108.2928,18.1053091 109.8048,18.7467636 111.714695,18.7467636 C113.094484,18.7467636 114.327747,18.4442788 115.415326,17.8380364 C116.502905,17.2326424 117.356379,16.372703 117.975326,15.2590667 C118.593853,14.1454303 118.903747,12.8667636 118.903747,11.4234909 C118.903747,9.98021818 118.593853,8.70664242 117.975326,7.60149091 C117.356379,6.49718788 116.502905,5.64191515 115.415326,5.03567273 C114.327747,4.43027879 113.094484,4.12694545 111.714695,4.12694545 C110.742484,4.12694545 109.853642,4.29664242 109.048589,4.63476364 C108.243958,4.97330909 107.568168,5.48155152 107.019958,6.15821818 L107.019958,4.28730909 L103.863326,4.28730909 L103.863326,23.7574909 L107.179116,23.7574909 L107.179116,16.8224 Z" id="Fill-18"></path>
                    <path d="M43.3072842,15.7924667 C43.2538105,15.8124061 43.2049684,15.8399818 43.1489684,15.8569515 C42.8483368,15.9481636 42.5186526,15.9939818 42.1590737,15.9939818 C41.5405474,15.9939818 41.0588632,15.8115576 40.7140211,15.4462848 C40.3687579,15.0810121 40.1961263,14.5507091 40.1961263,13.8558 L40.1961263,7.06707273 L43.9898105,7.06707273 L43.9898105,4.39434545 L40.1961263,4.39434545 L40.1961263,1.2727697 L36.8803368,1.2727697 L36.8803368,13.9359818 C36.8803368,15.5039818 37.3051789,16.6982242 38.1544421,17.5174364 C39.0024421,18.3370727 40.2053895,18.7468909 41.7616,18.7468909 C42.3805474,18.7468909 42.9683368,18.6667091 43.5258105,18.5063455 C44.0693895,18.3498 44.6319158,17.8182242 44.6319158,17.8182242 L43.3072842,15.7924667 Z" id="Fill-20"></path>
                    <path d="M62.6510316,-1.13686838e-13 L62.6510316,14.0975758 C62.6510316,15.5739394 63.0598737,16.7193939 63.8851368,17.529697 C64.7057684,18.34 65.8514526,18.7472727 67.3205053,18.7472727 C67.9651368,18.7472727 68.5798737,18.649697 69.1520842,18.4545455 C69.2030316,18.4375758 69.2573474,18.4206061 69.3082947,18.3993939 C69.9533474,18.1694545 70.3158737,17.8181818 70.3158737,17.8181818 L69.0632421,15.7627273 C68.7310316,15.9141818 68.3642947,15.9939394 67.9567158,15.9939394 C66.6304,15.9939394 65.9651368,15.2812121 65.9651368,13.8557576 L65.9651368,-1.13686838e-13 L62.6510316,-1.13686838e-13 Z" id="Fill-22"></path>
                    <path d="M13.5671579,13.1759515 C13.032,14.1118303 12.2648421,14.8351636 11.2673684,15.3378909 C10.2694737,15.8448606 9.11747368,16.0981333 7.80336842,16.0981333 L5.21978947,16.0786182 L3.27578947,14.2081333 L3.24505263,9.82061818 L3.24505263,3.73910303 L7.80336842,3.73910303 C9.11747368,3.73910303 10.2694737,3.99237576 11.2673684,4.49934545 C12.2648421,5.00589091 13.032,5.72540606 13.5671579,6.66128485 C14.1023158,7.59716364 14.3701053,8.68449697 14.3701053,9.91861818 C14.3701053,11.1569818 14.1023158,12.2396485 13.5671579,13.1759515 M16.4913684,5.19425455 C15.6766316,3.82904242 14.5242105,2.77437576 13.0437895,2.02643636 C11.5595789,1.28273939 9.86821053,0.906860606 7.95789474,0.906860606 L1.38147368,0.906860606 L5.68434189e-14,0.906860606 L5.68434189e-14,9.82867879 L0.00505263158,10.6105576 L0.032,15.6463152 L3.45557895,18.9303758 L7.95789474,18.9303758 C8.16294737,18.9303758 8.36547368,18.9252848 8.56547368,18.9163758 C10.0589474,18.8518909 11.4117895,18.5464364 12.6315789,18.0017091 C12.7701053,17.9397697 12.9090526,17.8782545 13.0437895,17.8103758 C14.5242105,17.0624364 15.6766316,16.0081939 16.4913684,14.6429818 C17.3111579,13.2781939 17.7208421,11.7046788 17.7208421,9.91861818 C17.7208421,8.13255758 17.3111579,6.55904242 16.4913684,5.19425455" id="Fill-26"></path>
                </g>
                <g id="Group-2">
                    <g id="Group-11" transform="translate(-0.000000, -0.000000)">
                        <mask id="mask-2" fill="white">
                            <use xlink:href="#path-1"></use>
                        </mask>
                        <g id="Clip-10"></g>
                        <polygon id="Fill-9" fill="#3452FF" mask="url(#mask-2)" points="0.129936842 0.0636787879 0.129094737 0.208345455 -0.000168421053 0.208345455 0.128252632 0.354284848 0.00614736842 19.4358606 0.00572631579 19.4740424 5.99772632 26.7799212 6.02888421 26.818103 14.3139368 26.818103 14.3139368 23.4869515 7.62467368 23.4869515 3.44698947 18.4830121 3.49835789 3.53992121 14.3139368 3.53992121 14.3139368 0.208345455 0.276884211 0.208345455"></polygon>
                    </g>
                    <polygon id="Fill-12" fill="#3452FF" points="7.8536 16.4968364 7.8536 16.5375636 10.1997053 19.189503 14.3138105 19.189503 14.3138105 15.8583515 11.6822316 15.8583515 11.2872842 15.4124727 11.2952842 11.5001091 14.3138105 11.5001091 14.3138105 8.16895758 7.87970526 8.16895758"></polygon>
                    <path d="M19.1685895,0.208684848 L17.0772211,0.208684848 L17.0772211,3.54026061 L19.1685895,3.54026061 C24.2881684,3.54026061 28.4532211,8.01729091 28.4532211,13.5209879 C28.4532211,19.0246848 24.2881684,23.5021394 19.1685895,23.5021394 L17.0675368,23.5021394 L17.0675368,26.8332909 L19.1685895,26.8332909 C26.1109053,26.8332909 31.7589053,20.8616545 31.7589053,13.5209879 C31.7589053,6.18074545 26.1109053,0.208684848 19.1685895,0.208684848" id="Fill-14" fill="#3452FF"></path>
                    <path d="M24.0423579,13.6794 C24.0423579,10.6409758 21.5290947,8.16891515 18.4398316,8.16891515 L17.0709895,8.16891515 L17.0709895,11.5000667 L18.4398316,11.5000667 C19.7059368,11.5000667 20.7358316,12.4775212 20.7358316,13.6794 C20.7358316,14.8808545 19.7059368,15.8583091 18.4398316,15.8583091 L17.0676211,15.8583091 L17.0676211,19.1894606 L18.4398316,19.1894606 C21.5290947,19.1894606 24.0423579,16.7178242 24.0423579,13.6794" id="Fill-16" fill="#3452FF"></path>
                </g>
            </g>
        </g>
    </g>
</svg>